# xmcd
#
# Track frame offsets:
#	150
#	25053
#	43930
#	68826
#	89211
#	110515
#	134376
#	154005
#	174483
#	194805
#
# Disc length: 2872 seconds
#
# Revision: 0
# Processed by: cddbd v1.4PL0 Copyright (c) Steve Scherf et al.
# Submitted via: EasyCDDAExtractor 4.6.9.1
#
DISCID=910b360a
DTITLE=Ragheb Alama - Saharony Ellil
DYEAR=1900
DGENRE=
TTITLE0=Saharony Ellil - Rabe'a Al Seyoufi, Amr Mustafa
TTITLE1=Kalby Ehtar - Ragheb Alama
TTITLE2=Habib Kalby - Tony Abi Karam, Ragheb Alama
TTITLE3=Bahwak - Ahmod Ali Mousa
TTITLE4=Lahzet Gonon - Asem Housen, Khalid Al Bakri
TTITLE5=Ya Salam - Tony Abi Karam, Amjad Al' Atafi
TTITLE6=Betgheeb Betroh - Ellias El Nasser, Ageeh
TTITLE7=Geny - Tony Abi Karam
TTITLE8=Yala Ya Shabab - Ragheb Alama , Andy 
TTITLE9=Awseflek Eeh - Asem Housen, Khalid Al Bakri
EXTD=
EXTT0=
EXTT1=
EXTT2=
EXTT3=
EXTT4=
EXTT5=
EXTT6=
EXTT7=
EXTT8=
EXTT9=
PLAYORDER=
